<?xml version="1.0" encoding="UTF-8" standalone="no"?>
<!-- Created with Inkscape (http://www.inkscape.org/) -->
<svg
   xmlns:i="http://ns.adobe.com/AdobeIllustrator/10.0/"
   xmlns:dc="http://purl.org/dc/elements/1.1/"
   xmlns:cc="http://web.resource.org/cc/"
   xmlns:rdf="http://www.w3.org/1999/02/22-rdf-syntax-ns#"
   xmlns:svg="http://www.w3.org/2000/svg"
   xmlns="http://www.w3.org/2000/svg"
   xmlns:sodipodi="http://inkscape.sourceforge.net/DTD/sodipodi-0.dtd"
   xmlns:inkscape="http://www.inkscape.org/namespaces/inkscape"
   width="625.00000px"
   height="150.00000px"
   id="svg1350"
   sodipodi:version="0.32"
   inkscape:version="0.42"
   sodipodi:docbase="/home/eric"
   sodipodi:docname="xubuntu_banner.svg"
   inkscape:export-filename="/home/eric/xubuntu_banner.png"
   inkscape:export-xdpi="90.000000"
   inkscape:export-ydpi="90.000000">
  <defs
     id="defs1352" />
  <sodipodi:namedview
     id="base"
     pagecolor="#ffffff"
     bordercolor="#666666"
     borderopacity="1.0"
     inkscape:pageopacity="0.0"
     inkscape:pageshadow="2"
     inkscape:zoom="0.92365554"
     inkscape:cx="334.23479"
     inkscape:cy="109.94021"
     inkscape:document-units="px"
     inkscape:current-layer="layer1"
     inkscape:window-width="772"
     inkscape:window-height="542"
     inkscape:window-x="217"
     inkscape:window-y="156" />
  <metadata
     id="metadata1355">
    <rdf:RDF>
      <cc:Work
         rdf:about="">
        <dc:format>image/svg+xml</dc:format>
        <dc:type
           rdf:resource="http://purl.org/dc/dcmitype/StillImage" />
      </cc:Work>
    </rdf:RDF>
  </metadata>
  <g
     inkscape:label="Layer 1"
     inkscape:groupmode="layer"
     id="layer1">
    <g
       id="g1378"
       transform="matrix(0.485671,0.000000,0.000000,0.485671,1.462756,1.407871)">
      <g
         transform="translate(-414.2857,-102.8571)"
         id="g1365">
        <path
           style="fill:#606a87;fill-opacity:1.0000000"
           id="path117"
           d="M 557.18946,184.33919 L 532.40148,141.40793 C 557.51619,129.00138 585.10657,125.99792 610.91245,131.25397 C 609.03056,147.51852 616.72772,164.10667 631.81100,172.81545 C 646.90056,181.52737 665.12552,179.89683 678.27351,170.12302 C 683.59240,176.15193 688.39292,182.79347 692.56823,190.02251 C 701.83623,206.07971 707.05772,223.35905 708.54689,240.68235 L 658.77930,240.42473 C 655.60933,219.17431 643.13366,199.51671 623.07708,187.94271 C 602.15654,175.85661 577.73300,175.31624 557.18946,184.33919 L 557.18946,184.33919 z "
           i:knockout="Off" />
        <path
           style="fill:#98a1b9;fill-opacity:1.0000000"
           id="path119"
           d="M 514.59436,350.36520 C 501.08508,340.57253 489.37284,327.85181 480.49441,312.46380 C 476.16830,304.97085 472.72500,297.21400 470.12996,289.31264 C 475.14096,285.85678 479.48278,281.26362 482.72816,275.63684 C 494.17020,255.82218 487.77372,230.60694 468.52770,218.57424 C 475.76302,192.43219 491.64114,168.65899 514.90853,151.92318 L 539.82846,195.08692 C 533.41312,200.43723 527.81461,206.99080 523.39425,214.65026 C 505.38606,245.84101 513.02352,284.80117 539.75934,307.11348 L 514.59436,350.36520 L 514.59436,350.36520 z "
           i:knockout="Off" />
        <path
           style="fill:#33394d;fill-opacity:1.0000000"
           id="path121"
           d="M 611.38370,371.17265 C 584.32742,376.78370 556.35691,372.95085 532.06847,360.91815 L 557.10150,317.88950 C 590.76789,332.81569 630.96273,320.23635 649.79091,287.62241 C 654.70767,279.10213 657.71113,270.00693 658.93953,260.83004 L 708.58458,261.08766 C 706.28487,289.31578 694.24275,316.40662 673.86258,337.10411 C 653.75259,326.15530 628.46195,333.18327 616.95078,353.12990 C 613.64885,358.83835 611.83610,365.00550 611.38370,371.17265 L 611.38370,371.17265 z "
           i:knockout="Off" />
        <path
           style="fill:#98a1b9;fill-opacity:1.0000000"
           id="path123"
           d="M 628.56248,359.83740 C 636.54868,346.00767 654.23641,341.26371 668.06929,349.24675 C 681.89903,357.23923 686.64299,374.92697 678.65365,388.75671 C 670.67061,402.58644 652.97973,407.33040 639.14999,399.34108 C 625.31711,391.35803 620.57943,373.67029 628.56248,359.83740 L 628.56248,359.83740 z "
           i:knockout="Off" />
        <path
           style="fill:#33394d;fill-opacity:1.0000000"
           id="path125"
           d="M 627.92786,121.68124 C 635.91405,107.84835 653.60179,103.11068 667.43467,111.09686 C 681.26755,119.08305 686.00836,136.77079 678.01904,150.60367 C 670.03599,164.43341 652.34825,169.17422 638.51537,161.18804 C 624.67620,153.20499 619.94167,135.51726 627.92786,121.68124 L 627.92786,121.68124 z "
           i:knockout="Off" />
        <path
           style="fill:#606a87;fill-opacity:1.0000000"
           id="path127"
           d="M 421.00956,239.98804 C 428.99575,226.15515 446.68035,221.41748 460.51323,229.40367 C 474.34611,237.38985 479.08693,255.07759 471.10074,268.90419 C 463.11456,282.74022 445.42681,287.47475 431.59393,279.49485 C 417.76105,271.51180 413.02338,253.82092 421.00956,239.98804 L 421.00956,239.98804 z "
           i:knockout="Off" />
        <path
           d="M 485.06376,211.24314 C 485.62359,211.14951 499.58289,218.51779 508.96575,221.06408 C 525.69712,225.33980 540.96962,238.20858 548.35146,245.60082 C 548.89880,246.23349 554.69168,241.26370 560.75406,241.62166 C 569.03494,242.12322 594.65805,249.32815 598.08152,244.42185 C 600.15747,241.54154 600.00866,238.00775 602.59866,236.56031 C 603.99302,236.17010 597.41556,224.14002 604.40614,220.28574 C 609.39048,217.79459 613.61417,231.74141 614.89409,233.30436 C 615.46744,234.00362 618.50903,234.17428 618.14900,232.58116 C 617.75879,230.85068 612.83894,217.46788 618.87219,215.22232 C 628.67128,211.34200 626.93456,232.34598 627.18951,232.94328 C 627.73164,234.21486 661.31720,235.19508 663.35361,250.30213 C 664.53155,258.61631 636.44645,269.36232 633.69934,271.27698 C 630.95326,273.19163 631.18218,276.25404 632.25294,278.14893 C 633.48394,280.20406 641.66597,287.14053 640.57127,290.44435 C 639.81893,292.35277 624.54852,285.35802 623.57351,286.82836 C 621.34981,289.63687 634.68997,296.66698 630.08334,301.65550 C 628.25714,302.85007 607.24587,292.85848 607.29892,292.97607 C 606.73495,293.19042 577.60927,298.29653 555.22236,291.52863 C 554.43362,291.30595 540.85412,304.64611 539.30991,304.18722 C 537.19858,303.41302 542.42226,292.58481 541.84163,290.44435 C 540.89261,289.25185 532.21528,295.28614 531.71580,292.25287 C 531.11851,288.26642 539.33073,283.68374 538.94882,281.04172 C 536.83126,266.03249 539.89471,257.26773 545.09654,249.94105 C 546.83118,247.24388 524.70961,230.53851 508.69416,223.94543 C 492.67972,217.35235 484.11164,211.76448 485.06376,211.24314 z M 628.98800,261.42731 C 628.81215,260.81337 639.91715,254.09646 641.52484,255.64067 C 644.41867,256.68957 629.08999,262.20669 628.98800,261.42731 z M 634.29179,267.53548 C 633.31367,266.94443 640.94005,258.05168 642.81099,259.01630 C 645.54249,261.73011 634.16381,267.74671 634.29179,267.53548 z M 664.34877,226.38806 C 663.42163,225.62116 656.15113,237.09244 657.75883,238.28286 C 658.72553,239.00606 664.76293,226.79701 664.34877,226.38806 z M 634.36600,242.80675 C 634.36600,244.62942 633.06674,246.10869 631.46588,246.10869 C 629.86500,246.10869 628.56575,244.62942 628.56575,242.80675 C 628.56575,240.98407 629.86500,239.50480 631.46588,239.50480 C 633.06674,239.50480 634.36600,240.98407 634.36600,242.80675 z M 655.99080,224.78075 C 655.53192,224.24798 653.09697,236.61000 654.22287,237.15734 C 655.18955,237.88053 656.87321,225.42383 655.99080,224.78075 z M 624.95588,241.51073 C 622.07247,243.54921 626.53859,255.08501 633.88401,248.34938 C 628.11297,248.51899 626.18793,246.82910 624.95588,241.51073 z "
           style="fill:#33394d;fill-opacity:1.0000000;fill-rule:evenodd;stroke:none;stroke-width:0.27218699pt;stroke-linecap:butt;stroke-linejoin:miter;stroke-opacity:1.0000000"
           id="path14" />
      </g>
      <text
         sodipodi:linespacing="125.00000%"
         id="text1374"
         y="216.45766"
         x="299.51691"
         style="font-size:30.517969px;font-style:normal;font-weight:normal;line-height:125.00000%;fill:#33394d;fill-opacity:1.0000000;stroke:none;stroke-width:1.0000000px;stroke-linecap:butt;stroke-linejoin:miter;stroke-opacity:1.0000000;font-family:Bitstream Vera Sans"
         xml:space="preserve"><tspan
           style="font-size:366.21567px;font-style:normal;font-variant:normal;font-weight:normal;font-stretch:normal;text-align:start;line-height:125.00000%;writing-mode:lr-tb;text-anchor:start;fill:#33394d;fill-opacity:1.0000000;font-family:Ubuntu-Title"
           y="216.45766"
           x="299.51691"
           id="tspan1376"
           sodipodi:role="line">xubuntu</tspan></text>
    </g>
  </g>
</svg>
