<?xml version="1.0" encoding="UTF-8" standalone="no"?>
<!-- Created with Inkscape (http://www.inkscape.org/) -->
<svg
   xmlns:i="http://ns.adobe.com/AdobeIllustrator/10.0/"
   xmlns:dc="http://purl.org/dc/elements/1.1/"
   xmlns:cc="http://web.resource.org/cc/"
   xmlns:rdf="http://www.w3.org/1999/02/22-rdf-syntax-ns#"
   xmlns:svg="http://www.w3.org/2000/svg"
   xmlns="http://www.w3.org/2000/svg"
   xmlns:sodipodi="http://inkscape.sourceforge.net/DTD/sodipodi-0.dtd"
   xmlns:inkscape="http://www.inkscape.org/namespaces/inkscape"
   width="116mm"
   height="116mm"
   id="svg2"
   sodipodi:version="0.32"
   inkscape:version="0.43"
   version="1.0"
   sodipodi:docbase="/Users/suppa/Desktop"
   sodipodi:docname="xubuntu.svg">
  <defs
     id="defs4">
    <linearGradient
       id="linearGradient5830">
      <stop
         style="stop-color:#ff0000;stop-opacity:1;"
         offset="0"
         id="stop5832" />
      <stop
         style="stop-color:#ff0000;stop-opacity:0;"
         offset="1"
         id="stop5834" />
    </linearGradient>
  </defs>
  <sodipodi:namedview
     id="base"
     pagecolor="#ffffff"
     bordercolor="#666666"
     borderopacity="1.0"
     inkscape:pageopacity="0.0"
     inkscape:pageshadow="2"
     inkscape:zoom="1.3892146"
     inkscape:cx="205.51181"
     inkscape:cy="205.51181"
     inkscape:document-units="px"
     inkscape:current-layer="layer1"
     inkscape:showpageshadow="false"
     showborder="true"
     showgrid="true"
     gridspacingy="7.25mm"
     gridspacingx="7.25mm"
     gridoriginy="0mm"
     gridoriginx="0mm"
     gridtolerance="7.25mm"
     gridempspacing="2"
     inkscape:grid-points="true"
     inkscape:grid-bbox="false"
     showguides="false"
     guidetolerance="0.4px"
     inkscape:guide-points="false"
     inkscape:guide-bbox="false"
     inkscape:window-width="1024"
     inkscape:window-height="720"
     inkscape:window-x="0"
     inkscape:window-y="22" />
  <metadata
     id="metadata7">
    <rdf:RDF>
      <cc:Work
         rdf:about="">
        <dc:format>image/svg+xml</dc:format>
        <dc:type
           rdf:resource="http://purl.org/dc/dcmitype/StillImage" />
      </cc:Work>
    </rdf:RDF>
  </metadata>
  <g
     inkscape:label="Layer 1"
     inkscape:groupmode="layer"
     id="layer1">
    <path
       style="fill:#82a0c8;fill-opacity:1;fill-rule:evenodd;stroke:#000000;stroke-width:0.98232825;stroke-linecap:butt;stroke-linejoin:miter;stroke-opacity:1;stroke-miterlimit:4;stroke-dasharray:none"
       d="M 404.21875 257.375 C 401.92814 257.51114 399.56424 257.50442 397.34375 257.78125 C 392.92288 258.3324 388.62108 259.18408 384.40625 260.3125 C 380.19142 261.44092 376.07326 262.86194 371.96875 264.59375 C 367.86424 266.32556 363.77742 268.35743 359.6875 270.71875 C 356.62006 272.48974 353.68726 274.40877 350.875 276.4375 C 348.06274 278.46623 345.36329 280.61208 342.8125 282.875 C 340.26171 285.13792 337.84552 287.49521 335.5625 289.96875 C 333.27948 292.44229 331.13395 295.02691 329.125 297.6875 C 327.11605 300.34809 325.25984 303.08216 323.53125 305.90625 C 321.80266 308.73034 320.19193 311.62973 318.75 314.59375 C 317.30807 317.55777 316.02397 320.6071 314.875 323.6875 C 313.72603 326.7679 312.72471 329.88929 311.875 333.0625 C 311.02529 336.23571 310.32541 339.44505 309.78125 342.6875 C 309.23709 345.92995 308.85732 349.21186 308.625 352.5 C 308.39268 355.78814 308.32043 359.09599 308.40625 362.40625 C 308.49207 365.71651 308.71474 369.03493 309.125 372.34375 C 309.50794 375.43218 310.0791 378.49517 310.75 381.5625 C 356.28046 354.26557 390.50389 310.01316 404.21875 257.375 z "
       id="path3159" />
    <path
       style="fill:#6482b4;fill-opacity:1;fill-rule:evenodd;stroke:#000000;stroke-width:0.98232825;stroke-linecap:butt;stroke-linejoin:miter;stroke-opacity:1;stroke-miterlimit:4;stroke-dasharray:none"
       d="M 404.4375 154.4375 C 400.97928 154.53287 397.52873 154.65817 394.15625 154.90625 C 389.76919 155.22897 385.44872 155.66378 381.1875 156.25 C 376.92628 156.83622 372.71963 157.55077 368.5625 158.40625 C 364.40537 159.26173 360.29354 160.27576 356.21875 161.40625 C 352.14396 162.53674 348.10797 163.80749 344.09375 165.21875 C 340.07953 166.63001 336.1004 168.17723 332.125 169.875 C 328.1496 171.57277 324.17709 173.41621 320.21875 175.40625 C 316.26041 177.39629 312.30678 179.52444 308.34375 181.8125 C 307.23396 182.45324 306.15577 183.12301 305.0625 183.78125 C 305.80343 187.17006 306.35996 190.56091 306.75 193.9375 C 307.14004 197.31409 307.35474 200.68685 307.40625 204.03125 C 307.45776 207.37565 307.33714 210.67651 307.0625 213.96875 C 306.78786 217.26099 306.36967 220.52989 305.78125 223.75 C 305.19283 226.97011 304.45233 230.15324 303.5625 233.28125 C 302.67267 236.40926 301.61638 239.48406 300.4375 242.5 C 299.25862 245.51594 297.95555 248.45985 296.5 251.34375 C 295.04445 254.22765 293.4386 257.04936 291.71875 259.78125 C 289.9989 262.51314 288.15927 265.15884 286.1875 267.71875 C 284.21573 270.27866 282.11758 272.75704 279.90625 275.125 C 277.69492 277.49296 275.37602 279.7502 272.9375 281.90625 C 270.49898 284.0623 267.93459 286.10709 265.28125 288.03125 C 262.62791 289.95541 259.88703 291.7652 257.03125 293.4375 C 254.17547 295.1098 251.23336 296.66203 248.1875 298.0625 C 245.14164 299.46297 241.97356 300.70382 238.75 301.8125 C 235.52644 302.92118 232.23264 303.89059 228.84375 304.6875 C 226.01851 305.35186 223.37157 305.87154 220.71875 306.28125 C 218.06593 306.69096 215.40722 306.99071 212.53125 307.1875 C 210.86039 313.51059 209.50263 319.91586 208.4375 326.375 C 207.37237 332.83414 206.60312 339.35764 206.15625 345.90625 C 205.70938 352.45486 205.56608 359.03351 205.75 365.625 C 205.93392 372.21649 206.454 378.81847 207.28125 385.40625 C 208.1085 391.99403 209.23563 398.55627 210.71875 405.09375 C 211.14075 406.95391 211.68049 408.80258 212.15625 410.65625 C 248.16157 409.50516 281.7236 398.96473 310.75 381.5625 C 310.0791 378.49517 309.50794 375.43218 309.125 372.34375 C 308.71474 369.03493 308.49207 365.71651 308.40625 362.40625 C 308.32043 359.09599 308.39268 355.78814 308.625 352.5 C 308.85732 349.21186 309.23709 345.92995 309.78125 342.6875 C 310.32541 339.44505 311.02529 336.23571 311.875 333.0625 C 312.72471 329.88929 313.72603 326.7679 314.875 323.6875 C 316.02397 320.6071 317.30807 317.55777 318.75 314.59375 C 320.19193 311.62973 321.80266 308.73034 323.53125 305.90625 C 325.25984 303.08216 327.11605 300.34809 329.125 297.6875 C 331.13395 295.02691 333.27948 292.44229 335.5625 289.96875 C 337.84552 287.49521 340.26171 285.13792 342.8125 282.875 C 345.36329 280.61208 348.06274 278.46623 350.875 276.4375 C 353.68726 274.40877 356.62006 272.48974 359.6875 270.71875 C 363.77742 268.35743 367.86424 266.32556 371.96875 264.59375 C 376.07326 262.86194 380.19142 261.44092 384.40625 260.3125 C 388.62108 259.18408 392.92288 258.3324 397.34375 257.78125 C 399.56424 257.50442 401.92814 257.51114 404.21875 257.375 C 408.53555 240.80695 410.84375 223.41377 410.84375 205.5 C 410.84375 187.8691 408.62332 170.76912 404.4375 154.4375 z "
       id="path3157" />
    <path
       style="fill:#82a0c8;fill-opacity:1;fill-rule:evenodd;stroke:#000000;stroke-width:0.98232825;stroke-linecap:butt;stroke-linejoin:miter;stroke-opacity:1;stroke-miterlimit:4;stroke-dasharray:none"
       d="M 205.5 0.1875 C 92.157111 0.1875 0.1875 92.157105 0.1875 205.5 C 0.1875 318.84289 92.157114 410.84375 205.5 410.84375 C 207.73216 410.84375 209.9412 410.72707 212.15625 410.65625 C 211.68049 408.80258 211.14075 406.95391 210.71875 405.09375 C 209.23563 398.55627 208.1085 391.99403 207.28125 385.40625 C 206.454 378.81847 205.93392 372.21649 205.75 365.625 C 205.56608 359.03351 205.70938 352.45486 206.15625 345.90625 C 206.60312 339.35764 207.37237 332.83414 208.4375 326.375 C 209.50263 319.91586 210.86039 313.51059 212.53125 307.1875 C 215.40722 306.99071 218.06593 306.69096 220.71875 306.28125 C 223.37157 305.87154 226.01851 305.35186 228.84375 304.6875 C 232.23264 303.89059 235.52644 302.92118 238.75 301.8125 C 241.97356 300.70382 245.14164 299.46297 248.1875 298.0625 C 251.23336 296.66203 254.17547 295.1098 257.03125 293.4375 C 259.88703 291.7652 262.62791 289.95541 265.28125 288.03125 C 267.93459 286.10709 270.49898 284.0623 272.9375 281.90625 C 275.37602 279.7502 277.69492 277.49296 279.90625 275.125 C 282.11758 272.75704 284.21573 270.27866 286.1875 267.71875 C 288.15927 265.15884 289.9989 262.51314 291.71875 259.78125 C 293.4386 257.04936 295.04445 254.22765 296.5 251.34375 C 297.95555 248.45985 299.25862 245.51594 300.4375 242.5 C 301.61638 239.48406 302.67267 236.40926 303.5625 233.28125 C 304.45233 230.15324 305.19283 226.97011 305.78125 223.75 C 306.36967 220.52989 306.78786 217.26099 307.0625 213.96875 C 307.33714 210.67651 307.45776 207.37565 307.40625 204.03125 C 307.35474 200.68685 307.14004 197.31409 306.75 193.9375 C 306.35996 190.56091 305.80343 187.17006 305.0625 183.78125 C 306.15577 183.12301 307.23396 182.45324 308.34375 181.8125 C 312.30678 179.52444 316.26041 177.39629 320.21875 175.40625 C 324.17709 173.41621 328.1496 171.57277 332.125 169.875 C 336.1004 168.17723 340.07953 166.63001 344.09375 165.21875 C 348.10797 163.80749 352.14396 162.53674 356.21875 161.40625 C 360.29354 160.27576 364.40537 159.26173 368.5625 158.40625 C 372.71963 157.55077 376.92628 156.83622 381.1875 156.25 C 385.44872 155.66378 389.76919 155.22897 394.15625 154.90625 C 397.52873 154.65817 400.97928 154.53287 404.4375 154.4375 C 381.71417 65.778884 301.21199 0.18749999 205.5 0.1875 z "
       id="path1327" />
    <path
       sodipodi:type="arc"
       style="opacity:1;color:#000000;fill:#ffffff;fill-opacity:1;fill-rule:evenodd;stroke:#000000;stroke-width:0.56781948;stroke-linecap:butt;stroke-linejoin:miter;marker:none;marker-start:none;marker-mid:none;marker-end:none;stroke-miterlimit:4;stroke-dasharray:none;stroke-dashoffset:0;stroke-opacity:1;visibility:visible;display:inline;overflow:visible"
       id="path4035"
       sodipodi:cx="153.71622"
       sodipodi:cy="822.97028"
       sodipodi:rx="59.12162"
       sodipodi:ry="59.12162"
       d="M 212.83784 822.97028 A 59.12162 59.12162 0 1 1  94.594597,822.97028 A 59.12162 59.12162 0 1 1  212.83784 822.97028 z"
       transform="matrix(1.252403,0,0,1.252568,12.99716,-825.3144)" />
    <path
       sodipodi:type="arc"
       style="opacity:1;color:#000000;fill:#6482b4;fill-opacity:1;fill-rule:evenodd;stroke:#000000;stroke-width:0.56781948;stroke-linecap:butt;stroke-linejoin:miter;marker:none;marker-start:none;marker-mid:none;marker-end:none;stroke-miterlimit:4;stroke-dasharray:none;stroke-dashoffset:0;stroke-opacity:1;visibility:visible;display:inline;overflow:visible"
       id="path4074"
       sodipodi:cx="153.71622"
       sodipodi:cy="822.97028"
       sodipodi:rx="59.12162"
       sodipodi:ry="59.12162"
       d="M 212.83784 822.97028 A 59.12162 59.12162 0 1 1  94.594597,822.97028 A 59.12162 59.12162 0 1 1  212.83784 822.97028 z"
       transform="matrix(1.073661,0,0,1.073629,40.4727,-678.0529)" />
    <path
       sodipodi:type="arc"
       style="opacity:1;color:#000000;fill:#ffffff;fill-opacity:1;fill-rule:evenodd;stroke:#000000;stroke-width:0.92983837;stroke-linecap:butt;stroke-linejoin:miter;marker:none;marker-start:none;marker-mid:none;marker-end:none;stroke-miterlimit:4;stroke-dasharray:none;stroke-dashoffset:0;stroke-opacity:1;visibility:visible;display:inline;overflow:visible"
       id="path4037"
       sodipodi:cx="153.71622"
       sodipodi:cy="822.97028"
       sodipodi:rx="59.12162"
       sodipodi:ry="59.12162"
       d="M 212.83784 822.97028 A 59.12162 59.12162 0 1 1  94.594597,822.97028 A 59.12162 59.12162 0 1 1  212.83784 822.97028 z"
       transform="matrix(0.655949,0,0,0.656107,104.6818,-334.4447)" />
    <path
       sodipodi:type="arc"
       style="fill:none;fill-opacity:1;fill-rule:evenodd;stroke:#000000;stroke-width:0.98232825;stroke-linecap:butt;stroke-linejoin:miter;stroke-miterlimit:4;stroke-dasharray:none;stroke-opacity:1"
       id="path6716"
       sodipodi:cx="724.25"
       sodipodi:cy="695.61218"
       sodipodi:rx="569.25"
       sodipodi:ry="569.25"
       d="M 1293.5 695.61218 A 569.25 569.25 0 1 1  155,695.61218 A 569.25 569.25 0 1 1  1293.5 695.61218 z"
       transform="matrix(0.360705,0,0,0.360705,-55.72879,-45.39898)" />
    <text
       xml:space="preserve"
       style="font-size:32px;font-style:normal;font-variant:normal;font-weight:normal;font-stretch:normal;text-align:start;line-height:100%;writing-mode:lr-tb;text-anchor:start;fill:#143264;fill-opacity:1;stroke:none;stroke-width:1px;stroke-linecap:butt;stroke-linejoin:miter;stroke-opacity:1;font-family:Bitstream Vera Sans"
       x="179.82283"
       y="90.735031"
       id="text6718"
       sodipodi:linespacing="100%"><tspan
         sodipodi:role="line"
         id="tspan6732"
         x="179.82283"
         y="90.735031">xubuntu</tspan></text>
    <g
       id="g4963"
       transform="matrix(0.75,0,0,0.75,197.4449,10.71837)"
       style="fill:#143264;fill-opacity:1">
      <path
         i:knockout="Off"
         d="M -84.138319,76.862954 L -91.803999,63.586468 C -84.037278,59.749745 -75.504959,58.820924 -67.524494,60.446358 C -68.106465,65.476169 -65.726122,70.606051 -61.061618,73.29924 C -56.395175,75.9934 -50.759106,75.489155 -46.693091,72.466605 C -45.048225,74.331045 -43.563668,76.384942 -42.272454,78.620522 C -39.406325,83.586209 -37.791579,88.929841 -37.331055,94.28707 L -52.721674,94.207402 C -53.701989,87.635711 -57.560087,81.556602 -63.762581,77.977343 C -70.232257,74.239718 -77.785233,74.072608 -84.138319,76.862954 L -84.138319,76.862954 z "
         id="path117"
         style="fill:#143264;fill-opacity:1" />
      <path
         i:knockout="Off"
         d="M -97.310849,128.20648 C -101.48859,125.1781 -105.1106,121.24422 -107.85626,116.48547 C -109.19411,114.16828 -110.25894,111.76948 -111.06146,109.32598 C -109.51181,108.25726 -108.1691,106.83682 -107.16547,105.09674 C -103.62702,98.96906 -105.60513,91.17125 -111.55696,87.450142 C -109.31944,79.365715 -104.40913,72.013854 -97.213692,66.838308 L -89.507207,80.18669 C -91.491151,81.841272 -93.222489,83.867964 -94.589485,86.236648 C -100.15852,95.882386 -97.796632,107.93081 -89.528582,114.83089 L -97.310849,128.20648 L -97.310849,128.20648 z "
         id="path119"
         style="fill:#143264;fill-opacity:1" />
      <path
         i:knockout="Off"
         d="M -67.37876,134.64118 C -75.74591,136.3764 -84.395785,135.19109 -91.906983,131.46998 L -84.165523,118.16337 C -73.754195,122.7793 -61.323944,118.88914 -55.501334,108.80328 C -53.980827,106.16838 -53.052006,103.35569 -52.672124,100.51774 L -37.319397,100.59741 C -38.030582,109.32695 -41.754607,117.70479 -48.057174,124.10549 C -54.276183,120.71957 -62.097312,122.89297 -65.657139,129.06146 C -66.678261,130.8268 -67.238855,132.73399 -67.37876,134.64118 L -67.37876,134.64118 z "
         id="path121"
         style="fill:#143264;fill-opacity:1" />
      <path
         i:knockout="Off"
         d="M -62.066222,131.13576 C -59.596493,126.85891 -54.126564,125.39184 -49.848748,127.8606 C -45.571901,130.33227 -44.104832,135.8022 -46.575533,140.07905 C -49.044288,144.35589 -54.515191,145.82296 -58.792036,143.35226 C -63.069854,140.88351 -64.53498,135.41358 -62.066222,131.13576 L -62.066222,131.13576 z "
         id="path123"
         style="fill:#143264;fill-opacity:1" />
      <path
         i:knockout="Off"
         d="M -62.26248,57.485991 C -59.792751,53.208173 -54.322819,51.743047 -50.045003,54.212774 C -45.767187,56.682501 -44.30109,62.152432 -46.771786,66.430249 C -49.240544,70.707094 -54.710476,72.173191 -58.988294,69.703464 C -63.268053,67.234708 -64.732207,61.764778 -62.26248,57.485991 L -62.26248,57.485991 z "
         id="path125"
         style="fill:#143264;fill-opacity:1" />
      <path
         i:knockout="Off"
         d="M -126.25194,94.072354 C -123.78221,89.794537 -118.31325,88.329411 -114.03543,90.799139 C -109.75762,93.268866 -108.29152,98.738798 -110.76125,103.01467 C -113.23097,107.29346 -118.70091,108.75761 -122.97872,106.28983 C -127.25654,103.82107 -128.72166,98.350171 -126.25194,94.072354 L -126.25194,94.072354 z "
         id="path127"
         style="fill:#143264;fill-opacity:1" />
      <path
         id="path14"
         style="fill:#143264;fill-opacity:1;fill-rule:evenodd;stroke:none;stroke-width:0.27218699pt;stroke-linecap:butt;stroke-linejoin:miter;stroke-opacity:1"
         d="M -101.89984,84.353632 C -101.75757,84.329838 -98.209994,86.202391 -95.825463,86.849498 C -91.573399,87.936116 -87.69209,91.20655 -85.816093,93.085191 C -85.676993,93.245975 -84.204809,91.98297 -82.664133,92.07394 C -80.559652,92.201404 -74.047876,94.032445 -73.177842,92.78557 C -72.650265,92.053578 -72.688084,91.155511 -72.02987,90.787664 C -71.675512,90.688496 -73.347088,87.631208 -71.570523,86.651693 C -70.303816,86.018599 -69.230419,89.563003 -68.905147,89.960205 C -68.759436,90.137914 -67.986455,90.181283 -68.077955,89.776413 C -68.177122,89.336635 -69.427434,85.935569 -67.894162,85.364889 C -65.403853,84.378757 -65.845217,89.716647 -65.780425,89.868441 C -65.642649,90.191597 -57.107314,90.440707 -56.589789,94.279968 C -56.290429,96.392911 -63.427893,99.123869 -64.126038,99.610454 C -64.823917,100.09704 -64.765738,100.87531 -64.493621,101.35687 C -64.180778,101.87916 -62.101423,103.64197 -62.379622,104.48159 C -62.570818,104.96659 -66.451595,103.18897 -66.699385,103.56264 C -67.264512,104.27638 -63.874283,106.06299 -65.044996,107.33076 C -65.509102,107.63435 -70.848844,105.09511 -70.835358,105.125 C -70.978686,105.17947 -78.380598,106.47712 -84.069943,104.75715 C -84.270391,104.70056 -87.721444,108.09078 -88.113884,107.97416 C -88.650452,107.77741 -87.32292,105.02556 -87.470482,104.48159 C -87.71166,104.17854 -89.916893,105.71207 -90.043829,104.9412 C -90.195622,103.9281 -88.108594,102.76347 -88.20565,102.09204 C -88.7438,98.277635 -87.965266,96.050186 -86.643287,94.188205 C -86.202453,93.502755 -91.824361,89.257301 -95.894484,87.581756 C -99.964346,85.906208 -102.14181,84.486125 -101.89984,84.353632 z M -65.323362,97.107288 C -65.368054,96.951263 -62.545859,95.244249 -62.137288,95.63669 C -61.401857,95.903255 -65.297444,97.305359 -65.323362,97.107288 z M -63.97547,98.6596 C -64.224049,98.509393 -62.285906,96.249417 -61.810428,96.494561 C -61.116251,97.184242 -64.007996,98.713283 -63.97547,98.6596 z M -56.336879,88.202518 C -56.572504,88.007619 -58.420202,90.922898 -58.011628,91.225427 C -57.765955,91.409219 -56.23163,88.306446 -56.336879,88.202518 z M -63.956615,92.375115 C -63.956615,92.838323 -64.286804,93.21426 -64.693642,93.21426 C -65.100482,93.21426 -65.430671,92.838323 -65.430671,92.375115 C -65.430671,91.911905 -65.100482,91.535968 -64.693642,91.535968 C -64.286804,91.535968 -63.956615,91.911905 -63.956615,92.375115 z M -58.460947,87.794041 C -58.57757,87.658643 -59.196381,90.80029 -58.910246,90.93939 C -58.664576,91.123181 -58.236698,87.95747 -58.460947,87.794041 z M -66.348072,92.045748 C -67.080857,92.563802 -65.945846,95.495477 -64.079103,93.783703 C -65.545737,93.826807 -66.034964,93.397344 -66.348072,92.045748 z " />
    </g>
  </g>
</svg>
