<?xml version="1.0" encoding="UTF-8" standalone="no"?>
<!-- Created with Inkscape (http://www.inkscape.org/) -->

<svg
   xmlns:dc="http://purl.org/dc/elements/1.1/"
   xmlns:cc="http://creativecommons.org/ns#"
   xmlns:rdf="http://www.w3.org/1999/02/22-rdf-syntax-ns#"
   xmlns:svg="http://www.w3.org/2000/svg"
   xmlns="http://www.w3.org/2000/svg"
   xmlns:sodipodi="http://sodipodi.sourceforge.net/DTD/sodipodi-0.dtd"
   xmlns:inkscape="http://www.inkscape.org/namespaces/inkscape"
   width="888.5"
   height="358.5"
   id="svg2"
   sodipodi:version="0.32"
   inkscape:version="0.48.2 r9819"
   version="1.0"
   sodipodi:docname="xubuntu_t-shirt_lyz_1.svg"
   inkscape:export-filename="/home/knome/tshirt_lyz_1.png"
   inkscape:export-xdpi="37.656902"
   inkscape:export-ydpi="37.656902">
  <defs
     id="defs4">
    <inkscape:perspective
       sodipodi:type="inkscape:persp3d"
       inkscape:vp_x="0 : 372.04724 : 1"
       inkscape:vp_y="0 : 1000 : 0"
       inkscape:vp_z="1052.3622 : 372.04724 : 1"
       inkscape:persp3d-origin="526.18109 : 248.03149 : 1"
       id="perspective2898" />
    <inkscape:perspective
       id="perspective2972"
       inkscape:persp3d-origin="0.5 : 0.33333333 : 1"
       inkscape:vp_z="1 : 0.5 : 1"
       inkscape:vp_y="0 : 1000 : 0"
       inkscape:vp_x="0 : 0.5 : 1"
       sodipodi:type="inkscape:persp3d" />
  </defs>
  <sodipodi:namedview
     id="base"
     pagecolor="#ffffff"
     bordercolor="#666666"
     borderopacity="1.0"
     gridtolerance="10000"
     guidetolerance="10000"
     objecttolerance="10000"
     inkscape:pageopacity="0.0"
     inkscape:pageshadow="2"
     inkscape:zoom="0.99775535"
     inkscape:cx="628.71868"
     inkscape:cy="244.75449"
     inkscape:document-units="pt"
     inkscape:current-layer="layer3"
     width="841.88975pt"
     height="595.27559pt"
     inkscape:window-width="1920"
     inkscape:window-height="1130"
     inkscape:window-x="1920"
     inkscape:window-y="23"
     showgrid="true"
     units="pt"
     grid_units="pt"
     inkscape:object-bbox="true"
     inkscape:object-points="true"
     inkscape:object-nodes="true"
     inkscape:grid-points="true"
     inkscape:guide-points="true"
     inkscape:window-maximized="1"
     fit-margin-top="30"
     fit-margin-left="30"
     fit-margin-right="30"
     fit-margin-bottom="30">
    <inkscape:grid
       id="GridFromPre046Settings"
       type="xygrid"
       originx="0px"
       originy="0px"
       spacingx="2pt"
       spacingy="2pt"
       color="#0000ff"
       empcolor="#0000ff"
       opacity="0.2"
       empopacity="0.4"
       empspacing="5"
       units="pt"
       visible="true"
       enabled="false"
       snapvisiblegridlinesonly="true" />
  </sodipodi:namedview>
  <metadata
     id="metadata7">
    <rdf:RDF>
      <cc:Work
         rdf:about="">
        <dc:format>image/svg+xml</dc:format>
        <dc:type
           rdf:resource="http://purl.org/dc/dcmitype/StillImage" />
        <dc:title></dc:title>
        <dc:date>20070219</dc:date>
        <dc:creator>
          <cc:Agent>
            <dc:title>Francis Jacquerye</dc:title>
          </cc:Agent>
        </dc:creator>
        <cc:license
           rdf:resource="http://web.resource.org/cc/PublicDomain" />
        <dc:rights>
          <cc:Agent>
            <dc:title>Public Domain</dc:title>
          </cc:Agent>
        </dc:rights>
        <dc:publisher>
          <cc:Agent>
            <dc:title />
          </cc:Agent>
        </dc:publisher>
        <dc:source>http://1sd.org/uploads/Images/t-shirt_template.svg </dc:source>
        <dc:subject>
          <rdf:Bag>
            <rdf:li>SVG</rdf:li>
            <rdf:li>t-shirt</rdf:li>
            <rdf:li>template</rdf:li>
            <rdf:li>vector</rdf:li>
            <rdf:li>vectorial</rdf:li>
          </rdf:Bag>
        </dc:subject>
        <dc:description>I could'nt find any existing template so I decided to make one</dc:description>
      </cc:Work>
      <cc:License
         rdf:about="http://web.resource.org/cc/PublicDomain">
        <cc:permits
           rdf:resource="http://web.resource.org/cc/Reproduction" />
        <cc:permits
           rdf:resource="http://web.resource.org/cc/Distribution" />
        <cc:permits
           rdf:resource="http://web.resource.org/cc/DerivativeWorks" />
      </cc:License>
    </rdf:RDF>
  </metadata>
  <g
     inkscape:groupmode="layer"
     id="layer2"
     inkscape:label="T-shirt"
     transform="translate(-109,-206.59375)"
     sodipodi:insensitive="true">
    <g
       id="g3074">
      <path
         inkscape:connector-curvature="0"
         id="path1982"
         d="m 357,244.59375 c 0,0 -15,7.5 -32.5,7.5 -16.8167,0 -29.11831,-6.37222 -30.0625,-6.875 -0.0972,1.03838 -0.45913,5.71466 0.15625,11.65625 6.85152,2.57756 16.95819,5.21875 29.78125,5.21875 14.00826,0 25.71132,-3.1454 33.28125,-5.90625 0.2313,-6.19007 -0.49463,-10.71203 -0.53125,-10.9375 -0.1392,-0.38969 -0.125,-0.65625 -0.125,-0.65625 z m 0.25,0.9375 c 0.0869,0.18818 0.22065,0.39477 0.375,0.625 -0.15625,-0.23438 -0.28711,-0.43457 -0.375,-0.625 z m 0.96875,1.375 c 0.24487,0.26741 0.55368,0.55173 0.90625,0.84375 -0.35156,-0.29297 -0.66211,-0.5752 -0.90625,-0.84375 z M 359.125,247.75 c 0.34222,0.28345 0.72598,0.57705 1.1875,0.875 -0.46092,-0.29848 -0.84606,-0.59047 -1.1875,-0.875 z m -74.59375,4.3125 c 0,0 -0.0312,0.0312 -0.0312,0.0312 3.6e-4,-7.8e-4 0.0297,0.0312 0.0312,0.0312 -0.003,-0.0208 0.003,-0.0417 0,-0.0625 z"
         style="fill:none;stroke:#000000;stroke-width:1px;stroke-linecap:butt;stroke-linejoin:miter;stroke-opacity:1" />
      <path
         inkscape:connector-curvature="0"
         id="path1984"
         d="m 294.25,245.125 c 0,0 -1.54559,2.85995 -4.75,4.46875 -4.68364,2.35146 -4.66875,2.33547 -4.6875,2.34375 l -0.0937,0 -0.0312,0 -0.15625,0.125 C 288.49711,283.68779 302,299.59375 327,299.59375 c 41.35604,0 40.09747,-44.64122 40,-47.0625 L 366.28125,252.5 C 366.70729,252.27792 367,252.09375 367,252.09375 c 0,0 0,0 -5,-2.5 -3.125,-1.5625 -4.31055,-3.11035 -4.75,-4.0625 -0.0325,-0.0704 -0.0375,-0.12399 -0.0625,-0.1875 l 0,-0.1875 -0.0625,-0.0312 c 0,0 7.375,44.46875 -30.125,44.46875 -35.98556,0 -32.8757,-41.02798 -32.5625,-44.375 -0.055,-0.0273 -0.1875,-0.0937 -0.1875,-0.0937 z"
         style="fill:none;stroke:#000000;stroke-width:1px;stroke-linecap:butt;stroke-linejoin:miter;stroke-opacity:1" />
      <path
         inkscape:connector-curvature="0"
         id="path2051"
         d="m 284.625,251.96875 -65.125,15.125 12.5,42.5 5,217.5 177.5,0 -2.5,-202.5 17.5,-60 -62.5,-12.5 c 0,0 -0.29271,0.18417 -0.71875,0.40625 L 367,252.53125 c 0.0975,2.42128 1.35604,47.0625 -40,47.0625 -25,0 -38.50289,-15.90596 -42.46875,-47.53125 l 0.0937,-0.0937 z"
         style="fill:none;stroke:#000000;stroke-width:1px;stroke-linecap:butt;stroke-linejoin:miter;stroke-opacity:1" />
      <path
         inkscape:connector-curvature="0"
         id="path1994"
         d="m 219.5,267.09375 -66.6875,25.28125 22.625,76.90625 57.875,-2.25 0,-0.0312 L 232,309.5938 l -12.5,-42.5 z"
         style="fill:none;stroke:#000000;stroke-width:1px;stroke-linecap:butt;stroke-linejoin:miter;stroke-opacity:1" />
      <path
         inkscape:connector-curvature="0"
         id="path1996"
         d="M 429.46875,264.65625 412,324.59375 l 0.53125,42.3125 63.25,-2.03125 17.5,-79.78125 -63.8125,-20.4375 z"
         style="fill:none;stroke:#000000;stroke-width:1px;stroke-linecap:butt;stroke-linejoin:miter;stroke-opacity:1" />
      <path
         inkscape:connector-curvature="0"
         id="path2004"
         d="m 152.8125,292.375 -5.8125,2.21875 20,75 8.4375,-0.3125 -22.625,-76.90625 z"
         style="fill:none;stroke:#000000;stroke-width:1px;stroke-linecap:butt;stroke-linejoin:miter;stroke-opacity:1" />
      <path
         inkscape:connector-curvature="0"
         id="path2009"
         d="m 493.28125,285.09375 -17.5,79.78125 8.71875,-0.28125 15,-77.5 -6.21875,-2 z"
         style="fill:none;stroke:#000000;stroke-width:1px;stroke-linecap:butt;stroke-linejoin:miter;stroke-opacity:1" />
      <path
         inkscape:connector-curvature="0"
         id="path2022"
         d="m 367,252.09375 c 0,0 -0.29271,0.18417 -0.71875,0.40625 l 0.46875,0.0312 0.28125,-0.4375 -0.0312,0 z m -9.375,4.09375 c -7.57068,2.75852 -19.25794,5.90625 -33.25,5.90625 -12.80545,0 -22.89885,-2.6445 -29.75,-5.21875 1.35881,13.20745 7.53767,32.71875 32.375,32.71875 25.34079,0 30.14754,-20.24314 30.625,-33.40625 z"
         style="fill:none;stroke:#000000;stroke-width:1px;stroke-linecap:butt;stroke-linejoin:miter;stroke-opacity:1" />
    </g>
    <g
       id="g3084">
      <path
         inkscape:connector-curvature="0"
         style="fill:none;stroke:#000000;stroke-width:1px;stroke-linecap:butt;stroke-linejoin:miter;stroke-opacity:1"
         d="m 822,252.09448 c 0,0 -0.004,0.008 -5,-2.5 -3.20441,-1.6088 -4.76211,-4.47213 -4.76211,-4.47213 0,0 -12.73789,6.97213 -30.23789,6.97213 -17.5,0 -32.5,-7.5 -32.5,-7.5 0,0 0,2.5 -5,5 -5,2.5 -5,2.5 -5,2.5 0,0 17.61043,9.99994 42.61043,9.99994 25,0 39.83409,-10.12088 39.88957,-9.99994 z"
         id="path2024"
         sodipodi:nodetypes="cscscsczc" />
      <path
         inkscape:connector-curvature="0"
         id="path2028"
         d="m 821.6875,251.9375 c 10e-4,5.5e-4 0.3125,0.15625 0.3125,0.15625 -0.0555,-0.12094 -14.87498,10 -39.875,10 -25,0 -42.625,-10 -42.625,-10 l -62.5,12.5 17.5,60 -2.5,202.5 177.5,0 5,-217.5 12.5,-42.5 -65.3125,-15.15625 z M 785.53125,252 779.375,252.0312 c 0.86894,0.0363 1.74171,0.0625 2.625,0.0625 1.2044,0 2.37456,-0.0323 3.53125,-0.0937 z"
         style="fill:none;stroke:#000000;stroke-width:1px;stroke-linecap:butt;stroke-linejoin:miter;stroke-opacity:1" />
      <path
         inkscape:connector-curvature="0"
         style="fill:none;stroke:#000000;stroke-width:1px;stroke-linecap:butt;stroke-linejoin:miter;stroke-opacity:1"
         d="m 887,267.09375 66.6875,25.28125 -22.625,76.90625 -57.875,-2.25 0,-0.0312 1.3125,-57.40625 12.5,-42.5 z"
         id="path2030" />
      <path
         inkscape:connector-curvature="0"
         style="fill:none;stroke:#000000;stroke-width:1px;stroke-linecap:butt;stroke-linejoin:miter;stroke-opacity:1"
         d="m 677.03125,264.65625 17.46875,59.9375 -0.53125,42.3125 -63.25,-2.03125 -17.5,-79.78125 63.8125,-20.4375 z"
         id="path2032" />
      <path
         inkscape:connector-curvature="0"
         style="fill:none;stroke:#000000;stroke-width:1px;stroke-linecap:butt;stroke-linejoin:miter;stroke-opacity:1"
         d="m 953.6875,292.375 5.8125,2.21875 -20,75 -8.4375,-0.3125 22.625,-76.90625 z"
         id="path2034" />
      <path
         inkscape:connector-curvature="0"
         style="fill:none;stroke:#000000;stroke-width:1px;stroke-linecap:butt;stroke-linejoin:miter;stroke-opacity:1"
         d="m 613.21875,285.09375 17.5,79.78125 -8.71875,-0.28125 -15,-77.5 6.21875,-2 z"
         id="path2036" />
    </g>
  </g>
  <g
     inkscape:groupmode="layer"
     id="layer3"
     inkscape:label="Design">
    <text
       transform="translate(-109,-206.59375)"
       xml:space="preserve"
       style="font-size:27.36619758999999874px;font-style:normal;font-variant:normal;font-weight:normal;font-stretch:normal;fill:#000000;fill-opacity:1;stroke:none;font-family:Ubuntu;-inkscape-font-specification:Ubuntu"
       x="707.97528"
       y="307.22571"
       id="text2994"><tspan
         sodipodi:role="line"
         id="tspan2996"
         x="707.97528"
         y="307.22571">xubuntu.org</tspan></text>
    <g
       transform="matrix(2.0025781,0,0,2.0025781,-852.41911,-867.81488)"
       id="layer1"
       inkscape:label="Layer 1">
      <g
         transform="translate(171.31201,145.40166)"
         id="g3637">
        <path
           sodipodi:type="arc"
           style="fill:#0044aa;fill-opacity:1;stroke:none"
           id="path3354"
           sodipodi:cx="258.57144"
           sodipodi:cy="-63.035713"
           sodipodi:rx="13.303572"
           sodipodi:ry="13.303572"
           d="m 271.87501,-63.035713 c 0,7.34736 -5.95621,13.303572 -13.30357,13.303572 -7.34736,0 -13.30357,-5.956212 -13.30357,-13.303572 0,-7.34736 5.95621,-13.303572 13.30357,-13.303572 7.34736,0 13.30357,5.956212 13.30357,13.303572 z"
           transform="matrix(2.4053691,0,0,2.4053691,-259.95974,532.25414)"
           inkscape:export-filename="/ssh/nebula/public_html/temp/xubuntu/precise_logo/logo_bigsizes.png"
           inkscape:export-xdpi="92.220436"
           inkscape:export-ydpi="92.220436" />
        <g
           id="g3372"
           transform="matrix(1.6,0,0,1.6,-197.58929,-247.94132)"
           inkscape:export-filename="/ssh/nebula/public_html/temp/xubuntu/precise_logo/logo_bigsizes.png"
           inkscape:export-xdpi="92.220436"
           inkscape:export-ydpi="92.220436">
          <g
             transform="translate(0.44642857,-0.04464286)"
             id="g3368">
            <path
               sodipodi:type="inkscape:offset"
               inkscape:radius="-0.49817169"
               inkscape:original="M 355.71875 379.90625 C 355.68125 379.91125 355.65195 379.93505 355.59375 379.96875 C 355.47738 380.03605 355.39105 380.1111 355.34375 380.1875 C 354.55632 381.51387 354.58195 383.13517 354.28125 384.40625 A 0.41364053 0.41365909 0 0 0 354.28125 384.46875 C 354.13756 385.87984 353.5878 387.50263 354.0625 389.125 A 0.41364053 0.41365909 0 0 0 354.09375 389.15625 A 0.41364053 0.41365909 0 0 0 354.09375 389.21875 C 354.22466 389.44765 354.44007 389.6366 354.6875 389.6875 C 354.93495 389.7377 355.14523 389.6164 355.3125 389.5 C 355.61157 389.29182 355.7553 388.95103 355.8125 388.59375 L 355.875 388.59375 L 355.875 388.5 C 356.49625 386.05054 356.94871 383.449 356.78125 380.875 A 0.41364053 0.41365909 0 0 0 356.78125 380.8125 C 356.74305 380.58377 356.63856 380.41727 356.5 380.25 C 356.36183 380.08363 356.21445 379.88625 355.875 379.90625 A 0.41364053 0.41365909 0 0 0 355.8125 379.90625 C 355.7934 379.90825 355.75625 379.90125 355.71875 379.90625 z "
               style="fill:#ffffff;fill-opacity:1;stroke:none"
               id="path3366"
               d="m 355.84375,380.40625 c -0.0699,0.0404 -0.0811,0.0614 -0.0625,0.0312 -0.67912,1.14393 -0.69662,2.65289 -1,4 a 0.4982215,0.4982215 0 0 1 0,0.0312 c -0.005,0.0197 0.005,0.0429 0,0.0625 -0.14726,1.44619 -0.62399,2.92107 -0.28125,4.3125 a 0.4982215,0.4982215 0 0 1 0.0312,0.0937 c 0.003,0.0101 -0.003,0.0212 0,0.0312 0.005,0.008 -0.005,0.0237 0,0.0312 0.006,0.009 0.0253,-0.008 0.0312,0 0.0731,0.10058 0.16238,0.1759 0.21875,0.1875 0.0403,0.008 0.11021,0.004 0.25,-0.0937 0.15127,-0.1053 0.23683,-0.31627 0.28125,-0.59375 a 0.4982215,0.4982215 0 0 1 0.0625,-0.0937 0.4982215,0.4982215 0 0 1 0,-0.0312 0.4982215,0.4982215 0 0 1 0.0312,-0.0937 0.4982215,0.4982215 0 0 1 0.0312,-0.0312 c 0.59834,-2.38691 1.00327,-4.89182 0.84375,-7.34375 -0.0204,-0.12189 -0.0428,-0.2068 -0.15625,-0.34375 -0.0753,-0.0907 -0.13704,-0.14279 -0.15625,-0.15625 -0.0192,-0.0135 0.007,-0.004 -0.0625,0 a 0.4982215,0.4982215 0 0 1 -0.0312,0 c -0.0257,0.003 -0.0158,-6.1e-4 -0.0312,0 z" />
            <path
               sodipodi:type="inkscape:offset"
               inkscape:radius="-0.46676695"
               inkscape:original="M 361.71875 381.375 C 360.36735 381.97973 359.80389 383.48371 359.09375 384.40625 A 0.35934087 0.35935699 0 0 0 359.09375 384.46875 C 358.2047 386.04438 356.96957 387.70963 356.84375 389.75 C 356.84375 390.25018 357.15979 390.63145 357.5625 390.71875 C 357.94157 390.80055 358.42044 390.62675 358.65625 390.25 C 358.67445 390.23 358.64175 390.2093 358.65625 390.1875 C 360.33963 387.8744 361.59578 385.15579 362.625 382.53125 C 362.72864 382.28034 362.74863 382.0347 362.625 381.78125 C 362.50136 381.52707 362.16517 381.335 361.84375 381.375 A 0.35934087 0.35935699 0 0 0 361.78125 381.375 L 361.71875 381.375 z "
               style="fill:#ffffff;fill-opacity:1;stroke:none"
               id="path3364"
               d="m 361.84375,381.84375 c -1.03636,0.50365 -1.56686,1.70537 -2.28125,2.6875 a 0.46681363,0.46681363 0 0 1 -0.0312,0.0937 0.46681363,0.46681363 0 0 1 -0.0312,0.0625 c -0.90569,1.60511 -2.06123,3.20738 -2.1875,5.0625 -7.1e-4,0.0105 6.5e-4,0.0208 0,0.0312 0.0138,0.27995 0.17412,0.43198 0.34375,0.46875 0.16658,0.036 0.47447,-0.0594 0.59375,-0.25 a 0.46681363,0.46681363 0 0 1 0.0312,-0.0312 0.46681363,0.46681363 0 0 1 0,-0.0312 0.46681363,0.46681363 0 0 1 0,-0.0312 c 1.646,-2.26173 2.88416,-4.92489 3.90625,-7.53125 a 0.46681363,0.46681363 0 0 1 0,-0.0312 c 0.0707,-0.17113 0.0941,-0.21493 0.0312,-0.34375 -0.0185,-0.0381 -0.21237,-0.16871 -0.3125,-0.15625 -0.0163,0.007 -0.0465,-0.008 -0.0625,0 z"
               transform="translate(-0.49107143,-0.26785714)" />
          </g>
          <path
             id="path3302"
             d="m 345.66985,382.2774 c -0.16726,0.0311 -0.4161,0.1809 -0.59375,0.25 -0.62832,0.23837 -0.975,0.77698 -1.125,1.40625 -0.15274,0.64382 -0.10183,1.36084 0,2.09375 0.10181,0.73145 0.24752,1.48649 0.40625,2.0625 0.13645,0.49836 0.23415,0.7408 0.28125,0.90625 l 0,0.125 c 0,0.0545 -0.0261,0.05 -0.0625,0.0937 -0.02,0.0109 0.02,0.0625 0,0.0625 -0.0453,0.0346 -0.0999,0.0625 -0.15625,0.0625 -0.11101,0.007 -0.19778,-0.0334 -0.3125,-0.0625 -0.0782,-0.0181 -0.17995,-0.0807 -0.15625,-0.0625 -0.0363,-0.0218 -0.1013,-0.0243 -0.125,-0.0625 0,0.0146 0.0219,0.0143 0,-0.0312 -0.0254,-0.0473 -0.0537,-0.1664 -0.0937,-0.25 -0.0891,-0.18946 -0.15908,-0.40895 -0.28125,-0.6875 -0.24381,-0.55472 -0.55754,-1.23609 -0.90625,-1.875 -0.34999,-0.64145 -0.76223,-1.22354 -1.21875,-1.625 -0.22817,-0.20054 -0.50982,-0.40155 -0.78125,-0.46875 -0.26199,-0.0655 -0.57287,-0.01 -0.84375,0.125 -0.69997,0.38836 -1.09619,1.02422 -1.25,1.6875 -0.15456,0.67346 -0.0815,1.44899 0.0312,2.125 0.11454,0.67454 0.29189,1.23077 0.40625,1.6875 0.049,0.19254 0.1087,0.37235 0.125,0.46875 0,0.0955 -0.0389,0.3448 -0.0625,0.4375 -0.11818,0.40928 -0.40559,1.09375 -0.40625,1.09375 0,0 -5.45294,14.48293 6.25,13.46875 0.0964,-0.007 0.31535,-0.0625 0.40625,-0.0625 2.29827,-0.46272 4.47308,-1.15769 6.40625,-1.9375 0.3798,-0.182 0.87805,-0.36282 1.4375,-0.625 1.11885,-0.52418 2.52451,-1.19587 3.875,-1.9375 1.35103,-0.74219 2.60454,-1.533 3.5625,-2.375 0.9596,-0.84327 1.65997,-1.76731 1.53125,-2.6875 -0.20364,-1.48345 -1.18879,-2.58587 -2.5,-3.4375 -1.31613,-0.85473 -2.95728,-1.44464 -4.59375,-1.875 -1.63576,-0.43018 -3.2241,-0.78002 -4.4375,-0.96875 -0.60652,-0.0945 -1.1749,-0.122 -1.53125,-0.1875 -0.10544,-0.0181 -0.16175,-0.0443 -0.21875,-0.0625 -0.0307,-0.004 -0.0334,-0.0131 -0.0625,-0.0312 -0.0363,-0.0218 -0.1031,-0.0243 -0.125,-0.0625 -0.02,-0.0363 0,-0.0832 0,-0.125 0,-0.0163 -1.7e-4,-0.0407 0,-0.0625 l 0,-0.90625 c -0.02,-0.748 -0.064,-1.73553 -0.21875,-2.65625 -0.15637,-0.92455 -0.39754,-1.80879 -0.90625,-2.40625 -0.30235,-0.35545 -0.73038,-0.5887 -1.25,-0.625 -0.15636,-0.0182 -0.3311,-0.0309 -0.5,0 z"
             style="fill:#ffffff;fill-opacity:1;stroke:none"
             inkscape:connector-curvature="0" />
        </g>
      </g>
    </g>
  </g>
</svg>
