<?xml version="1.0" encoding="UTF-8" standalone="no"?>
<!-- Created with Inkscape (http://www.inkscape.org/) -->

<svg
   xmlns:dc="http://purl.org/dc/elements/1.1/"
   xmlns:cc="http://creativecommons.org/ns#"
   xmlns:rdf="http://www.w3.org/1999/02/22-rdf-syntax-ns#"
   xmlns:svg="http://www.w3.org/2000/svg"
   xmlns="http://www.w3.org/2000/svg"
   xmlns:sodipodi="http://sodipodi.sourceforge.net/DTD/sodipodi-0.dtd"
   xmlns:inkscape="http://www.inkscape.org/namespaces/inkscape"
   width="888.5"
   height="358.5"
   id="svg2"
   sodipodi:version="0.32"
   inkscape:version="0.48.2 r9819"
   version="1.0"
   sodipodi:docname="tshirt_lyz_1.svg"
   inkscape:export-filename="/home/knome/tshirt_lyz_1.png"
   inkscape:export-xdpi="37.656902"
   inkscape:export-ydpi="37.656902">
  <defs
     id="defs4">
    <inkscape:perspective
       sodipodi:type="inkscape:persp3d"
       inkscape:vp_x="0 : 372.04724 : 1"
       inkscape:vp_y="0 : 1000 : 0"
       inkscape:vp_z="1052.3622 : 372.04724 : 1"
       inkscape:persp3d-origin="526.18109 : 248.03149 : 1"
       id="perspective2898" />
    <inkscape:perspective
       id="perspective2972"
       inkscape:persp3d-origin="0.5 : 0.33333333 : 1"
       inkscape:vp_z="1 : 0.5 : 1"
       inkscape:vp_y="0 : 1000 : 0"
       inkscape:vp_x="0 : 0.5 : 1"
       sodipodi:type="inkscape:persp3d" />
  </defs>
  <sodipodi:namedview
     id="base"
     pagecolor="#ffffff"
     bordercolor="#666666"
     borderopacity="1.0"
     gridtolerance="10000"
     guidetolerance="10000"
     objecttolerance="10000"
     inkscape:pageopacity="0.0"
     inkscape:pageshadow="2"
     inkscape:zoom="0.99775535"
     inkscape:cx="628.71868"
     inkscape:cy="244.75449"
     inkscape:document-units="pt"
     inkscape:current-layer="layer3"
     width="841.88975pt"
     height="595.27559pt"
     inkscape:window-width="1920"
     inkscape:window-height="1130"
     inkscape:window-x="1920"
     inkscape:window-y="23"
     showgrid="true"
     units="pt"
     grid_units="pt"
     inkscape:object-bbox="true"
     inkscape:object-points="true"
     inkscape:object-nodes="true"
     inkscape:grid-points="true"
     inkscape:guide-points="true"
     inkscape:window-maximized="1"
     fit-margin-top="30"
     fit-margin-left="30"
     fit-margin-right="30"
     fit-margin-bottom="30">
    <inkscape:grid
       id="GridFromPre046Settings"
       type="xygrid"
       originx="0px"
       originy="0px"
       spacingx="2pt"
       spacingy="2pt"
       color="#0000ff"
       empcolor="#0000ff"
       opacity="0.2"
       empopacity="0.4"
       empspacing="5"
       units="pt"
       visible="true"
       enabled="false"
       snapvisiblegridlinesonly="true" />
  </sodipodi:namedview>
  <metadata
     id="metadata7">
    <rdf:RDF>
      <cc:Work
         rdf:about="">
        <dc:format>image/svg+xml</dc:format>
        <dc:type
           rdf:resource="http://purl.org/dc/dcmitype/StillImage" />
        <dc:title></dc:title>
        <dc:date>20070219</dc:date>
        <dc:creator>
          <cc:Agent>
            <dc:title>Francis Jacquerye</dc:title>
          </cc:Agent>
        </dc:creator>
        <cc:license
           rdf:resource="http://web.resource.org/cc/PublicDomain" />
        <dc:rights>
          <cc:Agent>
            <dc:title>Public Domain</dc:title>
          </cc:Agent>
        </dc:rights>
        <dc:publisher>
          <cc:Agent>
            <dc:title />
          </cc:Agent>
        </dc:publisher>
        <dc:source>http://1sd.org/uploads/Images/t-shirt_template.svg </dc:source>
        <dc:subject>
          <rdf:Bag>
            <rdf:li>SVG</rdf:li>
            <rdf:li>t-shirt</rdf:li>
            <rdf:li>template</rdf:li>
            <rdf:li>vector</rdf:li>
            <rdf:li>vectorial</rdf:li>
          </rdf:Bag>
        </dc:subject>
        <dc:description>I could'nt find any existing template so I decided to make one</dc:description>
      </cc:Work>
      <cc:License
         rdf:about="http://web.resource.org/cc/PublicDomain">
        <cc:permits
           rdf:resource="http://web.resource.org/cc/Reproduction" />
        <cc:permits
           rdf:resource="http://web.resource.org/cc/Distribution" />
        <cc:permits
           rdf:resource="http://web.resource.org/cc/DerivativeWorks" />
      </cc:License>
    </rdf:RDF>
  </metadata>
  <g
     inkscape:groupmode="layer"
     id="layer2"
     inkscape:label="T-shirt"
     transform="translate(-109,-206.59375)"
     sodipodi:insensitive="true">
    <g
       id="g3074">
      <path
         inkscape:connector-curvature="0"
         id="path1982"
         d="m 357,244.59375 c 0,0 -15,7.5 -32.5,7.5 -16.8167,0 -29.11831,-6.37222 -30.0625,-6.875 -0.0972,1.03838 -0.45913,5.71466 0.15625,11.65625 6.85152,2.57756 16.95819,5.21875 29.78125,5.21875 14.00826,0 25.71132,-3.1454 33.28125,-5.90625 0.2313,-6.19007 -0.49463,-10.71203 -0.53125,-10.9375 -0.1392,-0.38969 -0.125,-0.65625 -0.125,-0.65625 z m 0.25,0.9375 c 0.0869,0.18818 0.22065,0.39477 0.375,0.625 -0.15625,-0.23438 -0.28711,-0.43457 -0.375,-0.625 z m 0.96875,1.375 c 0.24487,0.26741 0.55368,0.55173 0.90625,0.84375 -0.35156,-0.29297 -0.66211,-0.5752 -0.90625,-0.84375 z M 359.125,247.75 c 0.34222,0.28345 0.72598,0.57705 1.1875,0.875 -0.46092,-0.29848 -0.84606,-0.59047 -1.1875,-0.875 z m -74.59375,4.3125 c 0,0 -0.0312,0.0312 -0.0312,0.0312 3.6e-4,-7.8e-4 0.0297,0.0312 0.0312,0.0312 -0.003,-0.0208 0.003,-0.0417 0,-0.0625 z"
         style="fill:none;stroke:#000000;stroke-width:1px;stroke-linecap:butt;stroke-linejoin:miter;stroke-opacity:1" />
      <path
         inkscape:connector-curvature="0"
         id="path1984"
         d="m 294.25,245.125 c 0,0 -1.54559,2.85995 -4.75,4.46875 -4.68364,2.35146 -4.66875,2.33547 -4.6875,2.34375 l -0.0937,0 -0.0312,0 -0.15625,0.125 C 288.49711,283.68779 302,299.59375 327,299.59375 c 41.35604,0 40.09747,-44.64122 40,-47.0625 L 366.28125,252.5 C 366.70729,252.27792 367,252.09375 367,252.09375 c 0,0 0,0 -5,-2.5 -3.125,-1.5625 -4.31055,-3.11035 -4.75,-4.0625 -0.0325,-0.0704 -0.0375,-0.12399 -0.0625,-0.1875 l 0,-0.1875 -0.0625,-0.0312 c 0,0 7.375,44.46875 -30.125,44.46875 -35.98556,0 -32.8757,-41.02798 -32.5625,-44.375 -0.055,-0.0273 -0.1875,-0.0937 -0.1875,-0.0937 z"
         style="fill:none;stroke:#000000;stroke-width:1px;stroke-linecap:butt;stroke-linejoin:miter;stroke-opacity:1" />
      <path
         inkscape:connector-curvature="0"
         id="path2051"
         d="m 284.625,251.96875 -65.125,15.125 12.5,42.5 5,217.5 177.5,0 -2.5,-202.5 17.5,-60 -62.5,-12.5 c 0,0 -0.29271,0.18417 -0.71875,0.40625 L 367,252.53125 c 0.0975,2.42128 1.35604,47.0625 -40,47.0625 -25,0 -38.50289,-15.90596 -42.46875,-47.53125 l 0.0937,-0.0937 z"
         style="fill:none;stroke:#000000;stroke-width:1px;stroke-linecap:butt;stroke-linejoin:miter;stroke-opacity:1" />
      <path
         inkscape:connector-curvature="0"
         id="path1994"
         d="m 219.5,267.09375 -66.6875,25.28125 22.625,76.90625 57.875,-2.25 0,-0.0312 L 232,309.5938 l -12.5,-42.5 z"
         style="fill:none;stroke:#000000;stroke-width:1px;stroke-linecap:butt;stroke-linejoin:miter;stroke-opacity:1" />
      <path
         inkscape:connector-curvature="0"
         id="path1996"
         d="M 429.46875,264.65625 412,324.59375 l 0.53125,42.3125 63.25,-2.03125 17.5,-79.78125 -63.8125,-20.4375 z"
         style="fill:none;stroke:#000000;stroke-width:1px;stroke-linecap:butt;stroke-linejoin:miter;stroke-opacity:1" />
      <path
         inkscape:connector-curvature="0"
         id="path2004"
         d="m 152.8125,292.375 -5.8125,2.21875 20,75 8.4375,-0.3125 -22.625,-76.90625 z"
         style="fill:none;stroke:#000000;stroke-width:1px;stroke-linecap:butt;stroke-linejoin:miter;stroke-opacity:1" />
      <path
         inkscape:connector-curvature="0"
         id="path2009"
         d="m 493.28125,285.09375 -17.5,79.78125 8.71875,-0.28125 15,-77.5 -6.21875,-2 z"
         style="fill:none;stroke:#000000;stroke-width:1px;stroke-linecap:butt;stroke-linejoin:miter;stroke-opacity:1" />
      <path
         inkscape:connector-curvature="0"
         id="path2022"
         d="m 367,252.09375 c 0,0 -0.29271,0.18417 -0.71875,0.40625 l 0.46875,0.0312 0.28125,-0.4375 -0.0312,0 z m -9.375,4.09375 c -7.57068,2.75852 -19.25794,5.90625 -33.25,5.90625 -12.80545,0 -22.89885,-2.6445 -29.75,-5.21875 1.35881,13.20745 7.53767,32.71875 32.375,32.71875 25.34079,0 30.14754,-20.24314 30.625,-33.40625 z"
         style="fill:none;stroke:#000000;stroke-width:1px;stroke-linecap:butt;stroke-linejoin:miter;stroke-opacity:1" />
    </g>
    <g
       id="g3084">
      <path
         inkscape:connector-curvature="0"
         style="fill:none;stroke:#000000;stroke-width:1px;stroke-linecap:butt;stroke-linejoin:miter;stroke-opacity:1"
         d="m 822,252.09448 c 0,0 -0.004,0.008 -5,-2.5 -3.20441,-1.6088 -4.76211,-4.47213 -4.76211,-4.47213 0,0 -12.73789,6.97213 -30.23789,6.97213 -17.5,0 -32.5,-7.5 -32.5,-7.5 0,0 0,2.5 -5,5 -5,2.5 -5,2.5 -5,2.5 0,0 17.61043,9.99994 42.61043,9.99994 25,0 39.83409,-10.12088 39.88957,-9.99994 z"
         id="path2024"
         sodipodi:nodetypes="cscscsczc" />
      <path
         inkscape:connector-curvature="0"
         id="path2028"
         d="m 821.6875,251.9375 c 10e-4,5.5e-4 0.3125,0.15625 0.3125,0.15625 -0.0555,-0.12094 -14.87498,10 -39.875,10 -25,0 -42.625,-10 -42.625,-10 l -62.5,12.5 17.5,60 -2.5,202.5 177.5,0 5,-217.5 12.5,-42.5 -65.3125,-15.15625 z M 785.53125,252 779.375,252.0312 c 0.86894,0.0363 1.74171,0.0625 2.625,0.0625 1.2044,0 2.37456,-0.0323 3.53125,-0.0937 z"
         style="fill:none;stroke:#000000;stroke-width:1px;stroke-linecap:butt;stroke-linejoin:miter;stroke-opacity:1" />
      <path
         inkscape:connector-curvature="0"
         style="fill:none;stroke:#000000;stroke-width:1px;stroke-linecap:butt;stroke-linejoin:miter;stroke-opacity:1"
         d="m 887,267.09375 66.6875,25.28125 -22.625,76.90625 -57.875,-2.25 0,-0.0312 1.3125,-57.40625 12.5,-42.5 z"
         id="path2030" />
      <path
         inkscape:connector-curvature="0"
         style="fill:none;stroke:#000000;stroke-width:1px;stroke-linecap:butt;stroke-linejoin:miter;stroke-opacity:1"
         d="m 677.03125,264.65625 17.46875,59.9375 -0.53125,42.3125 -63.25,-2.03125 -17.5,-79.78125 63.8125,-20.4375 z"
         id="path2032" />
      <path
         inkscape:connector-curvature="0"
         style="fill:none;stroke:#000000;stroke-width:1px;stroke-linecap:butt;stroke-linejoin:miter;stroke-opacity:1"
         d="m 953.6875,292.375 5.8125,2.21875 -20,75 -8.4375,-0.3125 22.625,-76.90625 z"
         id="path2034" />
      <path
         inkscape:connector-curvature="0"
         style="fill:none;stroke:#000000;stroke-width:1px;stroke-linecap:butt;stroke-linejoin:miter;stroke-opacity:1"
         d="m 613.21875,285.09375 17.5,79.78125 -8.71875,-0.28125 -15,-77.5 6.21875,-2 z"
         id="path2036" />
    </g>
  </g>
  <g
     inkscape:groupmode="layer"
     id="layer3"
     inkscape:label="Design" />
</svg>
