<?xml version="1.0" encoding="UTF-8" standalone="no"?>
<!-- Created with Inkscape (http://www.inkscape.org/) -->
<svg
   xmlns:i="http://ns.adobe.com/AdobeIllustrator/10.0/"
   xmlns:dc="http://purl.org/dc/elements/1.1/"
   xmlns:cc="http://web.resource.org/cc/"
   xmlns:rdf="http://www.w3.org/1999/02/22-rdf-syntax-ns#"
   xmlns:svg="http://www.w3.org/2000/svg"
   xmlns="http://www.w3.org/2000/svg"
   xmlns:sodipodi="http://sodipodi.sourceforge.net/DTD/sodipodi-0.dtd"
   xmlns:inkscape="http://www.inkscape.org/namespaces/inkscape"
   width="247"
   height="120"
   id="svg2381"
   sodipodi:version="0.32"
   inkscape:version="0.44.1"
   version="1.0"
   sodipodi:docbase="/media/hdb3/images/xubuntu_feisty/logo"
   sodipodi:docname="vertXubLogo.svg"
   inkscape:export-filename="/media/hdb3/images/xubuntu_feisty/logo/vertXubLogo.png"
   inkscape:export-xdpi="90"
   inkscape:export-ydpi="90">
  <defs
     id="defs2383" />
  <sodipodi:namedview
     id="base"
     pagecolor="#ffffff"
     bordercolor="#666666"
     borderopacity="1.0"
     gridtolerance="10000"
     guidetolerance="10"
     objecttolerance="10"
     inkscape:pageopacity="0.0"
     inkscape:pageshadow="2"
     inkscape:zoom="2"
     inkscape:cx="161.45312"
     inkscape:cy="77.266433"
     inkscape:document-units="px"
     inkscape:current-layer="layer1"
     width="247px"
     height="120px"
     inkscape:window-width="927"
     inkscape:window-height="628"
     inkscape:window-x="47"
     inkscape:window-y="56" />
  <metadata
     id="metadata2386">
    <rdf:RDF>
      <cc:Work
         rdf:about="">
        <dc:format>image/svg+xml</dc:format>
        <dc:type
           rdf:resource="http://purl.org/dc/dcmitype/StillImage" />
      </cc:Work>
    </rdf:RDF>
  </metadata>
  <g
     inkscape:label="Layer 1"
     inkscape:groupmode="layer"
     id="layer1">
    <g
       id="g2105"
       transform="matrix(0.769108,0,0,0.769108,31.94551,-13.23442)">
						<circle
   style="fill:#789abd"
   sodipodi:ry="9.1680002"
   sodipodi:rx="9.1680002"
   sodipodi:cy="47.130001"
   sodipodi:cx="33.206001"
   id="circle2107"
   r="9.1680002"
   cy="47.130001"
   cx="33.206001"
   i:knockout="Off"
   transform="translate(37.84197,19.86703)" />
 
						<circle
   style="fill:#b7d1e6"
   sodipodi:ry="9.1689997"
   sodipodi:rx="9.1689997"
   sodipodi:cy="85.073997"
   sodipodi:cx="98.945"
   id="circle2109"
   r="9.1689997"
   cy="85.073997"
   cx="98.945"
   i:knockout="Off"
   transform="translate(37.84197,19.86703)" />
 
						<path
   style="fill:#789abd"
   id="path2111"
   d="M 114.87297,44.311032 C 126.28997,44.311032 135.75997,52.788032 137.32797,63.777032 L 153.03597,63.777032 C 152.32197,55.142032 148.74197,47.094032 142.75697,40.745032 C 138.92297,42.699032 134.20897,42.736032 130.20497,40.424032 C 126.19797,38.111032 123.87297,34.007032 123.64997,29.706032 C 120.80497,29.043032 117.86597,28.698032 114.87297,28.698032 C 109.14197,28.698032 103.60297,29.949032 98.566966,32.322032 L 106.42997,45.943032 C 109.04097,44.891032 111.89097,44.311032 114.87297,44.311032 z "
   i:knockout="Off" />

						<path
   style="fill:#3a5065"
   id="path2113"
   d="M 137.32997,70.206032 C 135.76497,81.200032 126.29197,89.682032 114.87297,89.682032 C 111.88797,89.682032 109.03897,89.101032 106.42597,88.049032 L 98.562966,101.67003 C 103.59997,104.04503 109.13997,105.29603 114.87297,105.29603 C 117.86897,105.29603 120.81097,104.95203 123.65797,104.28703 C 123.87797,99.982032 126.20197,95.872032 130.21397,93.556032 C 134.21797,91.243032 138.93397,91.281032 142.76897,93.236032 C 148.74997,86.887032 152.32597,78.840032 153.03797,70.207032 L 137.32997,70.207032 L 137.32997,70.206032 z "
   i:knockout="Off" />

						<path
   style="fill:#b7d1e6"
   id="path2115"
   d="M 92.187966,66.997032 C 92.187966,59.769032 95.584966,53.321032 100.86597,49.164032 L 93.003966,35.546032 C 91.159966,36.834032 89.414966,38.293032 87.791966,39.916032 C 83.241966,44.467032 79.977966,49.961032 78.182966,55.956032 C 81.800966,58.299032 84.196966,62.367032 84.196966,66.998032 C 84.196966,71.629032 81.800966,75.697032 78.182966,78.039032 C 79.977966,84.036032 83.241966,89.529032 87.791966,94.078032 C 89.413966,95.702032 91.157966,97.159032 92.999966,98.447032 L 100.86397,84.827032 C 95.582966,80.669032 92.187966,74.222032 92.187966,66.997032 z "
   i:knockout="Off" />

						<circle
   style="fill:#3a5065"
   sodipodi:ry="9.1680002"
   sodipodi:rx="9.1680002"
   sodipodi:cy="9.1700001"
   sodipodi:cx="98.936996"
   id="circle2117"
   r="9.1680002"
   cy="9.1700001"
   cx="98.936996"
   i:knockout="Off"
   transform="translate(37.84197,19.86703)" />
 
					</g>
    <text
       xml:space="preserve"
       style="font-size:39.99980164px;font-style:normal;font-weight:normal;fill:black;fill-opacity:1;stroke:none;stroke-width:1px;stroke-linecap:butt;stroke-linejoin:miter;stroke-opacity:1;font-family:Ubuntu-Title"
       x="10.328687"
       y="116.04337"
       id="text2284"><tspan
         sodipodi:role="line"
         id="tspan2286"
         x="10.328687"
         y="116.04337"
         style="font-size:71.99964142px">xubuntu</tspan></text>
    <g
       style="fill:black;fill-opacity:0.5;stroke:none"
       id="g23"
       transform="matrix(0.221338,0,0,0.221338,63.50288,-48.89069)">
      <path
         style="fill:#020202;fill-opacity:1;fill-rule:evenodd;stroke:#000002;stroke-width:1pt;stroke-linecap:butt;stroke-linejoin:miter;stroke-opacity:1"
         id="path14"
         d="M 143.756,326.774 C 144.294,326.684 157.709,333.765 166.726,336.212 C 182.805,340.321 197.482,352.688 204.576,359.792 C 205.102,360.4 210.669,355.624 216.495,355.968 C 224.453,356.45 249.077,363.374 252.367,358.659 C 254.362,355.891 254.219,352.495 256.708,351.104 C 258.048,350.729 251.727,339.168 258.445,335.464 C 263.235,333.07 267.294,346.473 268.524,347.975 C 269.075,348.647 271.998,348.811 271.652,347.28 C 271.277,345.617 266.549,332.756 272.347,330.598 C 281.764,326.869 280.095,347.054 280.34,347.628 C 280.861,348.85 313.137,349.792 315.094,364.31 C 316.226,372.3 289.236,382.627 286.596,384.467 C 283.957,386.307 284.177,389.25 285.206,391.071 C 286.389,393.046 294.252,399.712 293.2,402.887 C 292.477,404.721 277.802,397.999 276.865,399.412 C 274.728,402.111 287.548,408.867 283.121,413.661 C 281.366,414.809 261.174,405.207 261.225,405.32 C 260.683,405.526 232.693,410.433 211.179,403.929 C 210.421,403.715 197.371,416.535 195.887,416.094 C 193.858,415.35 198.878,404.944 198.32,402.887 C 197.408,401.741 189.069,407.54 188.589,404.625 C 188.015,400.794 195.907,396.39 195.54,393.851 C 193.505,379.427 196.449,371.004 201.448,363.963 C 203.115,361.371 181.856,345.317 166.465,338.981 C 151.075,332.645 142.841,327.275 143.756,326.774 z "
         transform="translate(4.86564,17.0296)" />
      <path
         style="fill:white;fill-opacity:1;fill-rule:evenodd;stroke:black;stroke-width:0.6pt;stroke-linecap:butt;stroke-linejoin:miter;stroke-opacity:1"
         id="path7"
         d="M 286.934,392.031 C 286.765,391.441 297.437,384.986 298.982,386.47 C 301.763,387.478 287.032,392.78 286.934,392.031 z " />
      <path
         style="fill:white;fill-opacity:1;fill-rule:evenodd;stroke:black;stroke-width:0.6pt;stroke-linecap:butt;stroke-linejoin:miter;stroke-opacity:1"
         id="path8"
         d="M 292.031,397.901 C 291.091,397.333 298.42,388.787 300.218,389.714 C 302.843,392.322 291.908,398.104 292.031,397.901 z " />
      <path
         style="fill:#020202;fill-opacity:1;fill-rule:evenodd;stroke:black;stroke-width:0.6pt;stroke-linecap:butt;stroke-linejoin:miter;stroke-opacity:1"
         id="path13"
         d="M 320.916,358.358 C 320.025,357.621 313.038,368.645 314.583,369.789 C 315.512,370.484 321.314,358.751 320.916,358.358 z " />
      <ellipse
         style="fill:white;fill-opacity:1;fill-rule:evenodd;stroke:black;stroke-width:0.6pt;stroke-linecap:butt;stroke-linejoin:miter;stroke-opacity:1"
         id="ellipse17"
         cx="288.86475"
         cy="374.58655"
         rx="3.012037"
         ry="3.398196"
         transform="matrix(0.9253,0,0,0.933788,22.0283,24.352)"
         sodipodi:cx="288.86475"
         sodipodi:cy="374.58655"
         sodipodi:rx="3.012037"
         sodipodi:ry="3.398196" />
      <path
         style="fill:#020202;fill-opacity:1;fill-rule:evenodd;stroke:black;stroke-width:0.6pt;stroke-linecap:butt;stroke-linejoin:miter;stroke-opacity:1"
         id="path18"
         d="M 320.916,358.358 C 320.475,357.846 318.135,369.726 319.217,370.252 C 320.146,370.947 321.764,358.976 320.916,358.358 z "
         transform="translate(-8.0321,-1.54463)" />
      <path
         style="fill:white;fill-opacity:1;fill-rule:evenodd;stroke:black;stroke-width:0.6pt;stroke-linecap:butt;stroke-linejoin:miter;stroke-opacity:1"
         id="path21"
         d="M 321.366,357.908 C 318.595,359.867 322.887,370.953 329.946,364.48 C 324.4,364.643 322.55,363.019 321.366,357.908 z "
         transform="translate(-38.3069,14.983)" />
    </g>
  </g>
</svg>
